<mxfile host="app.diagrams.net" agent="Mozilla/5.0 (Windows NT 10.0; Win64; x64; rv:143.0) Gecko/20100101 Firefox/143.0" version="28.2.5">
  <diagram name="Pagina-1" id="Vlgs3-vD3yWlQ9Ya2_ih">
    <mxGraphModel dx="1229" dy="690" grid="1" gridSize="10" guides="1" tooltips="1" connect="1" arrows="1" fold="1" page="1" pageScale="1" pageWidth="827" pageHeight="1169" math="0" shadow="0">
      <root>
        <mxCell id="0" />
        <mxCell id="1" parent="0" />
        <mxCell id="_ljBFFL1pftRcs8NAiXg-1" value="" style="rounded=1;whiteSpace=wrap;html=1;fillColor=#dae8fc;strokeColor=#6c8ebf;labelBackgroundColor=none;" parent="1" vertex="1">
          <mxGeometry x="33" y="990" width="777" height="161.75" as="geometry" />
        </mxCell>
        <mxCell id="9RAzOZE7e6CDI6lu2aur-12" value="" style="whiteSpace=wrap;html=1;aspect=fixed;perimeterSpacing=1;shadow=0;fillColor=#DFDFDF;strokeColor=#6c8ebf;labelBackgroundColor=none;" parent="1" vertex="1">
          <mxGeometry x="50" y="156.79" width="760" height="760" as="geometry" />
        </mxCell>
        <mxCell id="9RAzOZE7e6CDI6lu2aur-13" value="" style="whiteSpace=wrap;html=1;aspect=fixed;perimeterSpacing=0;shadow=0;dashed=1;dashPattern=8 4 1 4;labelBackgroundColor=none;fillColor=#BEBEBE;strokeColor=#666666;gradientColor=none;" parent="1" vertex="1">
          <mxGeometry x="110" y="210" width="640" height="640" as="geometry" />
        </mxCell>
        <mxCell id="9RAzOZE7e6CDI6lu2aur-14" value="" style="whiteSpace=wrap;html=1;aspect=fixed;perimeterSpacing=1;shadow=0;fillColor=#eeeeee;dashed=1;dashPattern=8 4 1 4;strokeColor=#36393d;labelBackgroundColor=none;" parent="1" vertex="1">
          <mxGeometry x="190" y="280" width="504" height="504" as="geometry" />
        </mxCell>
        <mxCell id="9RAzOZE7e6CDI6lu2aur-17" value="" style="whiteSpace=wrap;html=1;aspect=fixed;perimeterSpacing=1;shadow=0;fillColor=#cce5ff;dashed=1;dashPattern=1 4;strokeColor=#36393d;labelBackgroundColor=none;" parent="1" vertex="1">
          <mxGeometry x="502.21" y="346.25" width="173.75" height="173.75" as="geometry" />
        </mxCell>
        <mxCell id="9RAzOZE7e6CDI6lu2aur-25" value="" style="rounded=0;whiteSpace=wrap;html=1;dashed=1;dashPattern=1 1;labelBackgroundColor=none;fillColor=#b0e3e6;strokeColor=#0e8088;" parent="1" vertex="1">
          <mxGeometry x="516.52" y="387.97999999999996" width="154.37" height="90.29" as="geometry" />
        </mxCell>
        <mxCell id="9RAzOZE7e6CDI6lu2aur-2" value="Internet" style="image;aspect=fixed;perimeter=ellipsePerimeter;html=1;align=center;shadow=1;spacingTop=3;image=img/lib/active_directory/internet_cloud.svg;labelPosition=center;verticalLabelPosition=top;verticalAlign=bottom;labelBackgroundColor=none;imageBorder=none;imageBackground=none;" parent="1" vertex="1">
          <mxGeometry x="385" y="60" width="70" height="44.1" as="geometry" />
        </mxCell>
        <mxCell id="9RAzOZE7e6CDI6lu2aur-16" value="&lt;div&gt;snet-frontend-nl-01&lt;/div&gt;&lt;div&gt;172.20.1.0 /24&lt;/div&gt;" style="image;aspect=fixed;html=1;points=[];align=center;fontSize=8;image=img/lib/azure2/networking/Subnet.svg;labelBackgroundColor=none;labelPosition=center;verticalLabelPosition=top;verticalAlign=bottom;" parent="1" vertex="1">
          <mxGeometry x="499.85999999999996" y="336.24" width="28" height="16.77" as="geometry" />
        </mxCell>
        <mxCell id="9RAzOZE7e6CDI6lu2aur-18" value="pip-lbe-web-nl-001&lt;br&gt;128.251.158.84" style="image;aspect=fixed;html=1;points=[];align=left;fontSize=8;image=img/lib/azure2/networking/Public_IP_Addresses.svg;labelBackgroundColor=none;labelPosition=right;verticalLabelPosition=top;verticalAlign=bottom;" parent="1" vertex="1">
          <mxGeometry x="626" y="299.55" width="20.81" height="16.65" as="geometry" />
        </mxCell>
        <mxCell id="9RAzOZE7e6CDI6lu2aur-19" value="lbe-web-nl-001" style="image;sketch=0;aspect=fixed;html=1;points=[];align=right;fontSize=8;image=img/lib/mscae/Load_Balancer_feature.svg;labelBackgroundColor=none;labelPosition=left;verticalLabelPosition=top;verticalAlign=bottom;" parent="1" vertex="1">
          <mxGeometry x="583.79" y="296.65999999999997" width="22.42" height="22.42" as="geometry" />
        </mxCell>
        <mxCell id="9RAzOZE7e6CDI6lu2aur-20" value="vm-web-nl-001&lt;br&gt;&lt;span style=&quot;line-height: 110%;&quot;&gt;172.20.1.4&lt;/span&gt;" style="image;aspect=fixed;html=1;points=[];align=center;fontSize=8;image=img/lib/azure2/compute/Virtual_Machine.svg;labelBackgroundColor=none;verticalAlign=top;" parent="1" vertex="1">
          <mxGeometry x="527.86" y="410" width="27.35" height="25.36" as="geometry" />
        </mxCell>
        <mxCell id="9RAzOZE7e6CDI6lu2aur-21" value="vm-web-nl-003&lt;br&gt;172.20.1.6" style="image;aspect=fixed;html=1;points=[];align=center;fontSize=8;image=img/lib/azure2/compute/Virtual_Machine.svg;labelBackgroundColor=none;verticalAlign=top;" parent="1" vertex="1">
          <mxGeometry x="582.5" y="438.11" width="27.35" height="25.36" as="geometry" />
        </mxCell>
        <mxCell id="9RAzOZE7e6CDI6lu2aur-22" value="vm-web-nl-002&lt;br&gt;&lt;span style=&quot;line-height: 110%;&quot;&gt;172.20.1.5&lt;/span&gt;" style="image;aspect=fixed;html=1;points=[];align=center;fontSize=8;image=img/lib/azure2/compute/Virtual_Machine.svg;labelBackgroundColor=none;" parent="1" vertex="1">
          <mxGeometry x="628.35" y="410" width="27.35" height="25.36" as="geometry" />
        </mxCell>
        <mxCell id="9RAzOZE7e6CDI6lu2aur-23" value="&lt;font&gt;asg-webservers-nl-001&lt;/font&gt;" style="image;aspect=fixed;html=1;points=[];align=center;fontSize=8;image=img/lib/azure2/security/Application_Security_Groups.svg;labelBackgroundColor=none;labelPosition=center;verticalLabelPosition=top;verticalAlign=bottom;" parent="1" vertex="1">
          <mxGeometry x="507.46" y="380" width="16" height="19.43" as="geometry" />
        </mxCell>
        <mxCell id="9RAzOZE7e6CDI6lu2aur-26" value="&lt;font style=&quot;font-size: 8px;&quot;&gt;nsg-frontend-nl-001&lt;/font&gt;" style="image;aspect=fixed;html=1;points=[];align=center;fontSize=10;image=img/lib/azure2/networking/Network_Security_Groups.svg;labelBackgroundColor=none;labelPosition=center;verticalLabelPosition=top;verticalAlign=bottom;" parent="1" vertex="1">
          <mxGeometry x="665.96" y="336.24" width="20" height="24.28" as="geometry" />
        </mxCell>
        <mxCell id="9RAzOZE7e6CDI6lu2aur-30" value="" style="image;aspect=fixed;html=1;points=[];align=center;fontSize=12;image=img/lib/azure2/other/Azure_A.svg;labelBackgroundColor=none;" parent="1" vertex="1">
          <mxGeometry x="40" y="140" width="31.82" height="30" as="geometry" />
        </mxCell>
        <mxCell id="9RAzOZE7e6CDI6lu2aur-33" value="" style="image;aspect=fixed;html=1;points=[];align=center;fontSize=12;image=img/lib/azure2/networking/Private_Endpoint.svg;labelBackgroundColor=none;" parent="1" vertex="1">
          <mxGeometry x="474.75" y="710" width="29" height="26.58" as="geometry" />
        </mxCell>
        <mxCell id="9RAzOZE7e6CDI6lu2aur-52" style="edgeStyle=orthogonalEdgeStyle;rounded=0;orthogonalLoop=1;jettySize=auto;html=1;entryX=0;entryY=0.5;entryDx=0;entryDy=0;fillColor=#dae8fc;strokeColor=light-dark(#5294cf, #5294CF);labelBackgroundColor=none;startArrow=classic;startFill=1;" parent="1" source="9RAzOZE7e6CDI6lu2aur-34" target="9RAzOZE7e6CDI6lu2aur-2" edge="1">
          <mxGeometry relative="1" as="geometry" />
        </mxCell>
        <mxCell id="9RAzOZE7e6CDI6lu2aur-34" value="Administrator" style="sketch=0;pointerEvents=1;shadow=0;dashed=0;html=1;strokeColor=none;labelPosition=center;verticalLabelPosition=top;verticalAlign=bottom;outlineConnect=0;align=center;shape=mxgraph.office.users.user;fillColor=#2072B8;labelBackgroundColor=none;" parent="1" vertex="1">
          <mxGeometry x="160" y="67.05" width="26" height="30" as="geometry" />
        </mxCell>
        <mxCell id="9RAzOZE7e6CDI6lu2aur-51" style="edgeStyle=orthogonalEdgeStyle;rounded=0;orthogonalLoop=1;jettySize=auto;html=1;entryX=1;entryY=0;entryDx=0;entryDy=0;fillColor=#d5e8d4;strokeColor=#82b366;labelBackgroundColor=none;startArrow=classic;startFill=1;" parent="1" source="9RAzOZE7e6CDI6lu2aur-35" target="9RAzOZE7e6CDI6lu2aur-2" edge="1">
          <mxGeometry relative="1" as="geometry">
            <Array as="points">
              <mxPoint x="527" y="67" />
            </Array>
          </mxGeometry>
        </mxCell>
        <mxCell id="9RAzOZE7e6CDI6lu2aur-35" value="Werknemer" style="sketch=0;pointerEvents=1;shadow=0;dashed=0;html=1;strokeColor=#82b366;labelPosition=center;verticalLabelPosition=top;verticalAlign=bottom;outlineConnect=0;align=center;shape=mxgraph.office.users.user;fillColor=#d5e8d4;labelBackgroundColor=none;" parent="1" vertex="1">
          <mxGeometry x="600" y="60" width="26" height="30" as="geometry" />
        </mxCell>
        <mxCell id="9RAzOZE7e6CDI6lu2aur-44" style="edgeStyle=orthogonalEdgeStyle;rounded=0;orthogonalLoop=1;jettySize=auto;html=1;entryX=1;entryY=0.5;entryDx=0;entryDy=0;labelBackgroundColor=none;startArrow=classic;startFill=1;" parent="1" source="9RAzOZE7e6CDI6lu2aur-36" target="9RAzOZE7e6CDI6lu2aur-2" edge="1">
          <mxGeometry relative="1" as="geometry">
            <Array as="points">
              <mxPoint x="580" y="135" />
              <mxPoint x="580" y="82" />
            </Array>
          </mxGeometry>
        </mxCell>
        <mxCell id="9RAzOZE7e6CDI6lu2aur-36" value="Klant" style="sketch=0;pointerEvents=1;shadow=0;dashed=0;html=1;strokeColor=none;fillColor=#505050;labelPosition=center;verticalLabelPosition=top;verticalAlign=bottom;outlineConnect=0;align=center;shape=mxgraph.office.users.user;labelBackgroundColor=none;" parent="1" vertex="1">
          <mxGeometry x="602.35" y="120" width="26" height="30" as="geometry" />
        </mxCell>
        <mxCell id="9RAzOZE7e6CDI6lu2aur-37" value="&lt;font&gt;strgprodzkoonl001&lt;/font&gt;" style="image;aspect=fixed;html=1;points=[];align=center;fontSize=8;image=img/lib/azure2/storage/Storage_Accounts.svg;labelBackgroundColor=none;labelPosition=center;verticalLabelPosition=top;verticalAlign=bottom;" parent="1" vertex="1">
          <mxGeometry x="133.25" y="580.3799999999999" width="26.75" height="21.4" as="geometry" />
        </mxCell>
        <mxCell id="9RAzOZE7e6CDI6lu2aur-38" value="" style="rounded=0;whiteSpace=wrap;html=1;rotation=90;fillColor=#cce5ff;dashed=1;dashPattern=1 4;strokeColor=#36393d;labelBackgroundColor=none;" parent="1" vertex="1">
          <mxGeometry x="279.36" y="367.03" width="161.07" height="111.88" as="geometry" />
        </mxCell>
        <mxCell id="9RAzOZE7e6CDI6lu2aur-15" value="&lt;font style=&quot;font-size: 10px;&quot;&gt;vnet-zkoo-production-nl-01&lt;br&gt;172.20.0.0/16&amp;nbsp;&lt;/font&gt;" style="image;aspect=fixed;html=1;points=[];align=center;fontSize=12;image=img/lib/azure2/networking/Virtual_Networks.svg;labelBackgroundColor=none;verticalAlign=bottom;labelPosition=center;verticalLabelPosition=top;" parent="1" vertex="1">
          <mxGeometry x="186" y="270" width="33.5" height="20" as="geometry" />
        </mxCell>
        <mxCell id="9RAzOZE7e6CDI6lu2aur-46" value="" style="endArrow=classic;html=1;rounded=0;exitX=0.489;exitY=0.947;exitDx=0;exitDy=0;exitPerimeter=0;labelBackgroundColor=none;endFill=1;startArrow=classic;startFill=1;" parent="1" source="9RAzOZE7e6CDI6lu2aur-19" target="9RAzOZE7e6CDI6lu2aur-25" edge="1">
          <mxGeometry width="50" height="50" relative="1" as="geometry">
            <mxPoint x="494.24" y="373.13" as="sourcePoint" />
            <mxPoint x="520" y="420" as="targetPoint" />
          </mxGeometry>
        </mxCell>
        <mxCell id="9RAzOZE7e6CDI6lu2aur-1" value="2526_DK06_casusgr02" style="image;sketch=0;aspect=fixed;html=1;points=[];align=center;fontSize=12;image=img/lib/mscae/ResourceGroup.svg;labelPosition=center;verticalLabelPosition=top;verticalAlign=bottom;labelBackgroundColor=none;" parent="1" vertex="1">
          <mxGeometry x="104.5" y="200" width="30" height="24" as="geometry" />
        </mxCell>
        <mxCell id="9RAzOZE7e6CDI6lu2aur-54" value="&lt;font&gt;nsg-gateway-nl-003&lt;/font&gt;" style="image;aspect=fixed;html=1;points=[];align=center;fontSize=8;image=img/lib/azure2/networking/Network_Security_Groups.svg;labelBackgroundColor=none;labelPosition=center;verticalLabelPosition=top;verticalAlign=bottom;" parent="1" vertex="1">
          <mxGeometry x="403" y="332.48" width="20" height="24.28" as="geometry" />
        </mxCell>
        <mxCell id="9RAzOZE7e6CDI6lu2aur-55" value="&lt;div&gt;snet-gateway-nl-03&lt;/div&gt;&lt;div&gt;172.20.3.0/24&lt;/div&gt;" style="image;aspect=fixed;html=1;points=[];align=center;fontSize=8;image=img/lib/azure2/networking/Subnet.svg;labelBackgroundColor=none;labelPosition=center;verticalLabelPosition=top;verticalAlign=bottom;" parent="1" vertex="1">
          <mxGeometry x="300" y="336.23999999999995" width="28" height="16.77" as="geometry" />
        </mxCell>
        <mxCell id="9RAzOZE7e6CDI6lu2aur-66" value="&lt;div&gt;Azure&amp;nbsp;&lt;/div&gt;&lt;div&gt;&lt;br&gt;&lt;/div&gt;" style="image;aspect=fixed;html=1;points=[];align=center;fontSize=12;image=img/lib/azure2/other/Azure_A.svg;labelBackgroundColor=none;" parent="1" vertex="1">
          <mxGeometry x="50" y="1004.11" width="31.82" height="30" as="geometry" />
        </mxCell>
        <mxCell id="9RAzOZE7e6CDI6lu2aur-67" value="Resource Group" style="image;sketch=0;aspect=fixed;html=1;points=[];align=center;fontSize=12;image=img/lib/mscae/ResourceGroup.svg;labelBackgroundColor=none;" parent="1" vertex="1">
          <mxGeometry x="130" y="1009.62" width="30" height="24" as="geometry" />
        </mxCell>
        <mxCell id="9RAzOZE7e6CDI6lu2aur-68" value="Virtual Network" style="image;aspect=fixed;html=1;points=[];align=center;fontSize=12;image=img/lib/azure2/networking/Virtual_Networks.svg;labelBackgroundColor=none;" parent="1" vertex="1">
          <mxGeometry x="226.32999999999998" y="1014.28" width="33.5" height="20" as="geometry" />
        </mxCell>
        <mxCell id="9RAzOZE7e6CDI6lu2aur-69" value="Subnet" style="image;aspect=fixed;html=1;points=[];align=center;fontSize=12;image=img/lib/azure2/networking/Subnet.svg;labelBackgroundColor=none;" parent="1" vertex="1">
          <mxGeometry x="310" y="1017.51" width="28" height="16.77" as="geometry" />
        </mxCell>
        <mxCell id="9RAzOZE7e6CDI6lu2aur-71" value="Load Balancer" style="image;sketch=0;aspect=fixed;html=1;points=[];align=center;fontSize=12;image=img/lib/mscae/Load_Balancer_feature.svg;labelBackgroundColor=none;" parent="1" vertex="1">
          <mxGeometry x="383" y="1003.62" width="30" height="30" as="geometry" />
        </mxCell>
        <mxCell id="9RAzOZE7e6CDI6lu2aur-72" value="Public IP" style="image;aspect=fixed;html=1;points=[];align=center;fontSize=12;image=img/lib/azure2/networking/Public_IP_Addresses.svg;labelBackgroundColor=none;" parent="1" vertex="1">
          <mxGeometry x="466.43" y="1013.62" width="25" height="20" as="geometry" />
        </mxCell>
        <mxCell id="9RAzOZE7e6CDI6lu2aur-74" value="NSG" style="image;aspect=fixed;html=1;points=[];align=center;fontSize=12;image=img/lib/azure2/networking/Network_Security_Groups.svg;labelBackgroundColor=none;" parent="1" vertex="1">
          <mxGeometry x="586.21" y="1009.34" width="20" height="24.28" as="geometry" />
        </mxCell>
        <mxCell id="9RAzOZE7e6CDI6lu2aur-75" value="ASG" style="image;aspect=fixed;html=1;points=[];align=center;fontSize=12;image=img/lib/azure2/security/Application_Security_Groups.svg;labelBackgroundColor=none;" parent="1" vertex="1">
          <mxGeometry x="632.02" y="1009.34" width="20" height="24.28" as="geometry" />
        </mxCell>
        <mxCell id="9RAzOZE7e6CDI6lu2aur-76" value="Virtual Machine&amp;nbsp;" style="image;aspect=fixed;html=1;points=[];align=center;fontSize=12;image=img/lib/azure2/compute/Virtual_Machine.svg;labelBackgroundColor=none;" parent="1" vertex="1">
          <mxGeometry x="694" y="1004.28" width="32.35" height="30" as="geometry" />
        </mxCell>
        <mxCell id="9RAzOZE7e6CDI6lu2aur-77" value="Windows VM" style="image;sketch=0;aspect=fixed;html=1;points=[];align=center;fontSize=12;image=img/lib/mscae/VirtualMachineWindows.svg;labelBackgroundColor=none;" parent="1" vertex="1">
          <mxGeometry x="61.82" y="1083.32" width="27.5" height="25.3" as="geometry" />
        </mxCell>
        <mxCell id="9RAzOZE7e6CDI6lu2aur-78" value="Linux VM" style="image;sketch=0;aspect=fixed;html=1;points=[];align=center;fontSize=12;image=img/lib/mscae/VM_Linux.svg;labelBackgroundColor=none;" parent="1" vertex="1">
          <mxGeometry x="142.5" y="1083.73" width="27.5" height="25.3" as="geometry" />
        </mxCell>
        <mxCell id="9RAzOZE7e6CDI6lu2aur-79" value="Storage Acount" style="image;aspect=fixed;html=1;points=[];align=center;fontSize=12;image=img/lib/azure2/storage/Storage_Accounts.svg;labelBackgroundColor=none;" parent="1" vertex="1">
          <mxGeometry x="310" y="1087.6000000000001" width="26.75" height="21.4" as="geometry" />
        </mxCell>
        <mxCell id="9RAzOZE7e6CDI6lu2aur-80" value="Endpoint" style="image;aspect=fixed;html=1;points=[];align=center;fontSize=12;image=img/lib/azure2/networking/Private_Endpoint.svg;labelBackgroundColor=none;" parent="1" vertex="1">
          <mxGeometry x="220" y="1082.04" width="29" height="26.58" as="geometry" />
        </mxCell>
        <mxCell id="9RAzOZE7e6CDI6lu2aur-84" value="VM Scale Set" style="image;aspect=fixed;html=1;points=[];align=center;fontSize=12;image=img/lib/azure2/compute/VM_Scale_Sets.svg;labelBackgroundColor=none;" parent="1" vertex="1">
          <mxGeometry x="563.37" y="1079" width="30" height="30" as="geometry" />
        </mxCell>
        <mxCell id="9RAzOZE7e6CDI6lu2aur-85" value="Monitor" style="image;aspect=fixed;html=1;points=[];align=center;fontSize=12;image=img/lib/azure2/management_governance/Monitor.svg;labelBackgroundColor=none;" parent="1" vertex="1">
          <mxGeometry x="750" y="1082.7" width="27.35" height="27.35" as="geometry" />
        </mxCell>
        <mxCell id="9RAzOZE7e6CDI6lu2aur-86" value="Private DNS zone" style="image;sketch=0;aspect=fixed;html=1;points=[];align=center;fontSize=12;image=img/lib/mscae/DNS_Private_Zones.svg;labelBackgroundColor=none;" parent="1" vertex="1">
          <mxGeometry x="666.65" y="1081.65" width="27.35" height="27.35" as="geometry" />
        </mxCell>
        <mxCell id="JLNbLjvHFztpqkfQ3VYR-2" value="" style="rounded=0;whiteSpace=wrap;html=1;rotation=90;fillColor=#cce5ff;dashed=1;dashPattern=1 4;strokeColor=#36393d;labelBackgroundColor=none;" parent="1" vertex="1">
          <mxGeometry x="423" y="506.79" width="68.43" height="410" as="geometry" />
        </mxCell>
        <mxCell id="ezc3YGfQ1S8o-atjYG3j-8" style="edgeStyle=orthogonalEdgeStyle;rounded=0;orthogonalLoop=1;jettySize=auto;html=1;entryX=0.5;entryY=1;entryDx=0;entryDy=0;strokeColor=light-dark(#5294CF,#5294CF);startArrow=classic;startFill=1;" parent="1" source="9RAzOZE7e6CDI6lu2aur-42" target="9RAzOZE7e6CDI6lu2aur-17" edge="1">
          <mxGeometry relative="1" as="geometry" />
        </mxCell>
        <mxCell id="9RAzOZE7e6CDI6lu2aur-42" value="vm-manager-nl-004&lt;br&gt;172.20.4.4" style="image;aspect=fixed;html=1;points=[];align=center;fontSize=8;image=img/lib/azure2/compute/Virtual_Machine.svg;labelBackgroundColor=none;" parent="1" vertex="1">
          <mxGeometry x="425.83" y="687.8599999999999" width="32.35" height="30" as="geometry" />
        </mxCell>
        <mxCell id="JLNbLjvHFztpqkfQ3VYR-3" value="&lt;div&gt;snet-manager-nl-04&lt;/div&gt;&lt;div&gt;172.20.4.0/24&lt;/div&gt;" style="image;aspect=fixed;html=1;points=[];align=center;fontSize=8;image=img/lib/azure2/networking/Subnet.svg;labelBackgroundColor=none;labelPosition=center;verticalLabelPosition=top;verticalAlign=bottom;" parent="1" vertex="1">
          <mxGeometry x="249" y="671.09" width="28" height="16.77" as="geometry" />
        </mxCell>
        <mxCell id="JLNbLjvHFztpqkfQ3VYR-6" value="X:\Classified_docs" style="image;aspect=fixed;html=1;points=[];align=center;fontSize=8;image=img/lib/azure2/storage/Azure_Fileshare.svg;labelBackgroundColor=none;" parent="1" vertex="1">
          <mxGeometry x="122" y="629.3300000000002" width="38" height="38" as="geometry" />
        </mxCell>
        <mxCell id="JLNbLjvHFztpqkfQ3VYR-7" style="edgeStyle=orthogonalEdgeStyle;rounded=0;orthogonalLoop=1;jettySize=auto;html=1;exitX=0.25;exitY=1;exitDx=0;exitDy=0;strokeColor=light-dark(#5294CF,#5294CF);curved=0;labelBackgroundColor=none;flowAnimation=0;startArrow=classic;startFill=1;" parent="1" target="sQIJ7N-8Z21Tld_H8qOv-9" edge="1" source="9RAzOZE7e6CDI6lu2aur-2">
          <mxGeometry relative="1" as="geometry">
            <mxPoint x="382.9840710166911" y="57.04647596965154" as="sourcePoint" />
            <mxPoint x="357.18" y="448.0472413793103" as="targetPoint" />
            <Array as="points">
              <mxPoint x="390" y="102" />
              <mxPoint x="390" y="423" />
            </Array>
          </mxGeometry>
        </mxCell>
        <mxCell id="JLNbLjvHFztpqkfQ3VYR-8" style="edgeStyle=orthogonalEdgeStyle;rounded=0;orthogonalLoop=1;jettySize=auto;html=1;exitX=0;exitY=0.25;exitDx=0;exitDy=0;strokeColor=#66CC00;labelBackgroundColor=none;startArrow=classic;startFill=1;" parent="1" source="9RAzOZE7e6CDI6lu2aur-2" target="sQIJ7N-8Z21Tld_H8qOv-9" edge="1">
          <mxGeometry relative="1" as="geometry">
            <Array as="points">
              <mxPoint x="280" y="72" />
              <mxPoint x="280" y="390" />
              <mxPoint x="363" y="390" />
            </Array>
            <mxPoint x="407.1935333793474" y="77.19285771949333" as="sourcePoint" />
            <mxPoint x="264.95000000000005" y="429.42857142857133" as="targetPoint" />
          </mxGeometry>
        </mxCell>
        <mxCell id="JLNbLjvHFztpqkfQ3VYR-11" value="nsg-manager-nl-004" style="image;aspect=fixed;html=1;points=[];align=center;fontSize=8;image=img/lib/azure2/networking/Network_Security_Groups.svg;labelBackgroundColor=none;labelPosition=center;verticalLabelPosition=top;verticalAlign=bottom;" parent="1" vertex="1">
          <mxGeometry x="648.35" y="667.33" width="20" height="24.28" as="geometry" />
        </mxCell>
        <mxCell id="JLNbLjvHFztpqkfQ3VYR-14" value="SQL Database" style="image;aspect=fixed;html=1;points=[];align=center;fontSize=12;image=img/lib/azure2/databases/SQL_Database.svg;labelBackgroundColor=none;" parent="1" vertex="1">
          <mxGeometry x="477.65" y="1075.25" width="26.1" height="34.8" as="geometry" />
        </mxCell>
        <mxCell id="JLNbLjvHFztpqkfQ3VYR-15" value="File Share" style="image;aspect=fixed;html=1;points=[];align=center;fontSize=12;image=img/lib/azure2/storage/Azure_Fileshare.svg;labelBackgroundColor=none;" parent="1" vertex="1">
          <mxGeometry x="385" y="1070.6200000000001" width="38" height="38" as="geometry" />
        </mxCell>
        <mxCell id="_ljBFFL1pftRcs8NAiXg-2" value="&lt;h1&gt;Legenda&lt;/h1&gt;" style="text;html=1;align=center;verticalAlign=middle;whiteSpace=wrap;rounded=0;labelBackgroundColor=#A9C4EB;labelBorderColor=default;" parent="1" vertex="1">
          <mxGeometry x="310" y="950" width="210" height="30" as="geometry" />
        </mxCell>
        <mxCell id="sQIJ7N-8Z21Tld_H8qOv-1" style="edgeStyle=orthogonalEdgeStyle;rounded=0;orthogonalLoop=1;jettySize=auto;html=1;entryX=0.629;entryY=0.061;entryDx=0;entryDy=0;entryPerimeter=0;endArrow=none;endFill=0;dashed=1;dashPattern=1 2;strokeColor=#FF3333;" parent="1" source="9RAzOZE7e6CDI6lu2aur-37" target="JLNbLjvHFztpqkfQ3VYR-6" edge="1">
          <mxGeometry relative="1" as="geometry" />
        </mxCell>
        <mxCell id="sQIJ7N-8Z21Tld_H8qOv-2" style="edgeStyle=orthogonalEdgeStyle;rounded=0;orthogonalLoop=1;jettySize=auto;html=1;entryX=0.04;entryY=0.521;entryDx=0;entryDy=0;entryPerimeter=0;dashed=1;dashPattern=1 2;endArrow=none;endFill=0;" parent="1" source="9RAzOZE7e6CDI6lu2aur-19" target="9RAzOZE7e6CDI6lu2aur-18" edge="1">
          <mxGeometry relative="1" as="geometry" />
        </mxCell>
        <mxCell id="sQIJ7N-8Z21Tld_H8qOv-3" style="edgeStyle=orthogonalEdgeStyle;rounded=0;orthogonalLoop=1;jettySize=auto;html=1;entryX=0.495;entryY=0.041;entryDx=0;entryDy=0;entryPerimeter=0;startArrow=classic;startFill=1;" parent="1" source="9RAzOZE7e6CDI6lu2aur-2" target="9RAzOZE7e6CDI6lu2aur-19" edge="1">
          <mxGeometry relative="1" as="geometry">
            <Array as="points">
              <mxPoint x="420" y="120" />
              <mxPoint x="560" y="120" />
              <mxPoint x="560" y="270" />
              <mxPoint x="595" y="270" />
            </Array>
          </mxGeometry>
        </mxCell>
        <mxCell id="sQIJ7N-8Z21Tld_H8qOv-9" value="vm-vpn-nl-007&lt;br&gt;172.20.3.4" style="sketch=0;pointerEvents=1;shadow=0;dashed=0;html=1;strokeColor=none;fillColor=#DF8C42;labelPosition=right;verticalLabelPosition=bottom;verticalAlign=top;align=left;outlineConnect=0;shape=mxgraph.veeam2.open_vpn;fontSize=8;" parent="1" vertex="1">
          <mxGeometry x="348.00000000000006" y="407.97" width="30" height="30" as="geometry" />
        </mxCell>
        <mxCell id="sQIJ7N-8Z21Tld_H8qOv-11" style="edgeStyle=orthogonalEdgeStyle;rounded=0;orthogonalLoop=1;jettySize=auto;html=1;flowAnimation=1;fillColor=#cce5ff;strokeColor=light-dark(#5294cf, #babdc0);" parent="1" source="9RAzOZE7e6CDI6lu2aur-34" target="sQIJ7N-8Z21Tld_H8qOv-9" edge="1">
          <mxGeometry relative="1" as="geometry">
            <Array as="points">
              <mxPoint x="180" y="130" />
              <mxPoint x="270" y="130" />
              <mxPoint x="270" y="423" />
            </Array>
          </mxGeometry>
        </mxCell>
        <mxCell id="sQIJ7N-8Z21Tld_H8qOv-12" value="VPN Tunnel" style="edgeLabel;html=1;align=right;verticalAlign=middle;resizable=0;points=[];labelBackgroundColor=none;labelPosition=left;verticalLabelPosition=middle;fontSize=8;labelBorderColor=#99CCFF;whiteSpace=wrap;" parent="sQIJ7N-8Z21Tld_H8qOv-11" vertex="1" connectable="0">
          <mxGeometry x="-0.0144" y="-1" relative="1" as="geometry">
            <mxPoint x="-4" y="-80" as="offset" />
          </mxGeometry>
        </mxCell>
        <mxCell id="ezc3YGfQ1S8o-atjYG3j-2" value="" style="rounded=0;whiteSpace=wrap;html=1;rotation=90;fillColor=#cce5ff;dashed=1;dashPattern=1 4;strokeColor=#36393d;labelBackgroundColor=none;" parent="1" vertex="1">
          <mxGeometry x="265.01" y="493.85999999999996" width="82.99" height="194" as="geometry" />
        </mxCell>
        <mxCell id="9RAzOZE7e6CDI6lu2aur-28" value="&lt;div&gt;snet-backend-nl-02&lt;/div&gt;&lt;div&gt;172.20.2.0/24&amp;nbsp;&lt;/div&gt;" style="image;aspect=fixed;html=1;points=[];align=center;fontSize=8;image=img/lib/azure2/networking/Subnet.svg;labelBackgroundColor=none;labelPosition=center;verticalLabelPosition=top;verticalAlign=bottom;" parent="1" vertex="1">
          <mxGeometry x="210" y="542.49" width="28" height="16.77" as="geometry" />
        </mxCell>
        <mxCell id="9RAzOZE7e6CDI6lu2aur-29" value="&lt;div&gt;&lt;font style=&quot;font-size: 8px;&quot;&gt;nsg-backend-nl-002&lt;/font&gt;&lt;/div&gt;" style="image;aspect=fixed;html=1;points=[];align=center;fontSize=12;image=img/lib/azure2/networking/Network_Security_Groups.svg;labelBackgroundColor=none;labelPosition=center;verticalLabelPosition=top;verticalAlign=bottom;" parent="1" vertex="1">
          <mxGeometry x="385" y="538.73" width="20" height="24.28" as="geometry" />
        </mxCell>
        <mxCell id="9RAzOZE7e6CDI6lu2aur-31" value="vm-linback-nl-006&lt;br&gt;172.20.2.6" style="image;sketch=0;aspect=fixed;html=1;points=[];align=center;fontSize=8;image=img/lib/mscae/VM_Linux.svg;labelBackgroundColor=none;labelPosition=center;verticalLabelPosition=bottom;verticalAlign=top;" parent="1" vertex="1">
          <mxGeometry x="369.25" y="580.38" width="27.5" height="25.3" as="geometry" />
        </mxCell>
        <mxCell id="9RAzOZE7e6CDI6lu2aur-32" value="vm-winback-nl-005&lt;br&gt;172.20.2.5" style="image;sketch=0;aspect=fixed;html=1;points=[];align=center;fontSize=8;image=img/lib/mscae/VirtualMachineWindows.svg;labelBackgroundColor=none;labelPosition=center;verticalLabelPosition=bottom;verticalAlign=top;" parent="1" vertex="1">
          <mxGeometry x="309.25" y="555.08" width="27.5" height="25.3" as="geometry" />
        </mxCell>
        <mxCell id="ezc3YGfQ1S8o-atjYG3j-3" value="pep-strg-nl-001&lt;br&gt;172.20.2.4" style="image;aspect=fixed;html=1;points=[];align=center;fontSize=8;image=img/lib/azure2/networking/Private_Endpoint.svg;labelBackgroundColor=none;" parent="1" vertex="1">
          <mxGeometry x="233.01" y="576.1999999999999" width="32" height="29.33" as="geometry" />
        </mxCell>
        <mxCell id="ezc3YGfQ1S8o-atjYG3j-4" style="edgeStyle=orthogonalEdgeStyle;rounded=0;orthogonalLoop=1;jettySize=auto;html=1;entryX=0.939;entryY=0.525;entryDx=0;entryDy=0;entryPerimeter=0;startArrow=classic;startFill=1;startSize=5;endSize=5;strokeWidth=1;strokeColor=#FF3333;jumpSize=6;fontColor=#FFCC99;dashed=1;dashPattern=1 1;" parent="1" source="ezc3YGfQ1S8o-atjYG3j-3" target="9RAzOZE7e6CDI6lu2aur-37" edge="1">
          <mxGeometry relative="1" as="geometry" />
        </mxCell>
        <mxCell id="ezc3YGfQ1S8o-atjYG3j-5" style="edgeStyle=orthogonalEdgeStyle;rounded=0;orthogonalLoop=1;jettySize=auto;html=1;entryX=0.015;entryY=0.649;entryDx=0;entryDy=0;entryPerimeter=0;fontColor=none;noLabel=1;strokeColor=#97D077;startArrow=classic;startFill=1;" parent="1" source="sQIJ7N-8Z21Tld_H8qOv-9" target="ezc3YGfQ1S8o-atjYG3j-2" edge="1">
          <mxGeometry relative="1" as="geometry" />
        </mxCell>
        <mxCell id="ezc3YGfQ1S8o-atjYG3j-6" style="edgeStyle=orthogonalEdgeStyle;rounded=0;orthogonalLoop=1;jettySize=auto;html=1;entryX=-0.011;entryY=0.534;entryDx=0;entryDy=0;entryPerimeter=0;strokeColor=light-dark(#5294CF,#5294CF);startArrow=classic;startFill=1;" parent="1" source="sQIJ7N-8Z21Tld_H8qOv-9" target="JLNbLjvHFztpqkfQ3VYR-2" edge="1">
          <mxGeometry relative="1" as="geometry">
            <Array as="points">
              <mxPoint x="370" y="470" />
              <mxPoint x="443" y="470" />
            </Array>
          </mxGeometry>
        </mxCell>
        <mxCell id="ezc3YGfQ1S8o-atjYG3j-7" style="edgeStyle=orthogonalEdgeStyle;rounded=0;orthogonalLoop=1;jettySize=auto;html=1;entryX=1.02;entryY=0.407;entryDx=0;entryDy=0;entryPerimeter=0;strokeColor=light-dark(#5294CF,#5294CF);startArrow=classic;startFill=1;" parent="1" source="9RAzOZE7e6CDI6lu2aur-42" target="ezc3YGfQ1S8o-atjYG3j-2" edge="1">
          <mxGeometry relative="1" as="geometry" />
        </mxCell>
        <mxCell id="ezc3YGfQ1S8o-atjYG3j-9" value="VPN VM" style="sketch=0;pointerEvents=1;shadow=0;dashed=0;html=1;strokeColor=none;fillColor=#DF8C42;labelPosition=center;verticalLabelPosition=bottom;verticalAlign=top;align=center;outlineConnect=0;shape=mxgraph.veeam2.open_vpn;" parent="1" vertex="1">
          <mxGeometry x="526.5400000000001" y="1003.62" width="30" height="30" as="geometry" />
        </mxCell>
      </root>
    </mxGraphModel>
  </diagram>
</mxfile>
